<?xml version="1.0" encoding="UTF-8" standalone="no"?>
<!DOCTYPE svg PUBLIC "-//W3C//DTD SVG 1.1//EN" "http://www.w3.org/Graphics/SVG/1.1/DTD/svg11.dtd">
<svg xmlns="http://www.w3.org/2000/svg" version="1.1" viewBox="0 0 24 24">
<g>
<path fill="#010100" fill-opacity="0.004" d="
  M 0.00 0.00
  L 4.31 0.00
  C 2.19 0.68 0.75 2.08 0.00 4.19
  L 0.00 0.00
  Z"
/>
<path fill="#010000" fill-opacity="0.988" d="
  M 4.31 0.00
  L 6.31 0.00
  L 8.31 1.03
  C 8.48 1.12 8.79 1.17 9.24 1.18
  L 15.19 1.34
  C 15.53 1.35 15.84 1.28 16.09 1.14
  L 18.06 0.00
  L 22.31 0.00
  C 23.00 0.40 23.56 0.92 24.00 1.56
  L 24.00 7.06
  C 23.28 7.62 22.95 8.27 23.00 9.00
  C 23.09 10.21 23.43 11.89 24.00 14.06
  L 24.00 17.81
  C 22.84 20.75 20.84 22.31 18.00 22.50
  C 16.10 22.63 14.66 23.13 13.69 24.00
  L 10.44 24.00
  C 8.49 22.26 6.56 22.08 4.65 23.45
  C 4.38 23.64 4.06 23.69 3.79 23.58
  C 2.00 22.85 0.74 21.56 0.00 19.69
  L 0.00 13.94
  C 1.14 11.46 1.14 9.04 0.00 6.69
  L 0.00 4.19
  C 0.75 2.08 2.19 0.68 4.31 0.00
  Z
  M 1.19 4.44
  C 0.89 5.51 0.96 6.33 1.39 6.90
  C 1.54 7.10 1.87 7.07 2.04 6.83
  C 3.41 4.89 4.92 3.30 6.58 2.07
  C 7.41 1.44 7.31 1.09 6.27 1.00
  C 3.58 0.79 1.89 1.93 1.19 4.44
  Z
  M 22.60 2.75
  C 23.09 1.08 22.48 0.65 20.79 1.45
  C 20.51 1.59 20.18 1.62 19.87 1.55
  C 17.58 0.98 16.71 1.37 17.28 2.74
  C 18.51 5.68 20.01 6.18 21.76 4.24
  C 22.15 3.81 22.43 3.31 22.60 2.75
  Z
  M 10.46 16.94
  C 11.81 16.29 13.03 16.44 14.14 17.41
  C 14.38 17.62 14.47 17.95 14.36 18.23
  C 14.21 18.61 13.96 18.93 13.63 19.18
  C 13.29 19.42 13.09 19.71 13.10 19.93
  C 13.13 20.32 13.41 20.62 13.94 20.81
  C 17.19 21.98 19.90 21.47 22.09 19.30
  C 22.31 19.09 22.45 18.79 22.49 18.45
  C 22.58 17.78 22.71 17.13 22.89 16.49
  C 23.24 15.22 23.02 14.82 22.22 15.29
  C 21.98 15.43 21.81 15.71 21.75 16.05
  C 21.48 17.66 20.58 18.08 19.05 17.31
  C 18.77 17.17 18.75 16.76 19.02 16.55
  L 22.42 13.86
  C 22.68 13.65 22.77 13.30 22.64 13.01
  C 22.47 12.66 22.14 12.60 21.64 12.82
  C 19.53 13.75 18.96 13.44 19.94 11.87
  C 20.01 11.76 20.29 11.42 20.79 10.84
  C 21.59 9.91 21.72 8.88 21.18 7.75
  C 21.05 7.49 20.79 7.27 20.46 7.13
  C 18.86 6.48 17.61 5.43 16.70 4.00
  C 16.19 3.18 15.71 2.67 15.28 2.48
  C 14.57 2.17 13.82 2.13 13.03 2.38
  C 12.68 2.49 12.36 2.53 12.07 2.48
  C 8.98 2.01 6.48 2.88 4.57 5.09
  C 3.38 6.47 2.72 7.58 2.57 8.43
  C 2.34 9.74 3.05 11.08 4.69 12.44
  C 5.09 12.77 5.70 12.66 5.96 12.21
  C 7.11 10.24 8.30 10.33 9.51 12.48
  C 9.64 12.71 9.69 12.94 9.66 13.17
  C 9.57 13.92 9.29 14.03 8.81 13.50
  C 8.69 13.37 8.55 13.14 8.40 12.83
  C 7.83 11.66 7.28 11.67 6.75 12.85
  C 6.61 13.16 6.35 13.37 6.06 13.42
  C 4.89 13.63 3.76 13.48 2.69 12.98
  C 2.32 12.80 1.96 12.76 1.78 12.87
  C 1.18 13.22 1.94 14.30 4.05 16.09
  C 4.46 16.44 4.95 16.67 5.48 16.76
  C 7.73 17.17 8.46 18.51 7.68 20.78
  C 7.59 21.03 7.75 21.29 7.99 21.31
  C 9.02 21.38 9.90 21.07 10.62 20.38
  C 10.90 20.11 10.89 19.65 10.59 19.39
  C 10.02 18.90 9.70 18.44 9.65 18.02
  C 9.59 17.59 9.86 17.23 10.46 16.94
  Z
  M 21.71 6.18
  C 21.80 7.47 22.14 7.64 22.75 6.69
  C 22.92 6.41 22.99 6.07 22.93 5.75
  C 22.76 4.89 22.45 4.73 21.98 5.28
  C 21.78 5.51 21.68 5.83 21.71 6.18
  Z
  M 1.97 15.52
  C 1.18 15.13 0.86 15.37 1.00 16.24
  C 1.15 17.16 1.56 17.47 2.25 17.18
  C 2.55 17.05 2.72 16.74 2.66 16.43
  C 2.59 16.01 2.36 15.71 1.97 15.52
  Z
  M 11.40 18.76
  C 11.55 18.94 11.75 19.04 12.01 19.05
  C 12.29 19.07 12.53 18.82 12.55 18.50
  C 12.64 17.27 12.29 17.08 11.51 17.93
  C 11.27 18.19 11.22 18.54 11.40 18.76
  Z
  M 5.93 18.16
  C 5.48 18.08 5.05 18.17 4.64 18.44
  C 4.36 18.62 4.04 18.67 3.78 18.58
  C 0.73 17.54 0.26 18.40 2.37 21.16
  C 3.80 23.03 5.24 22.54 6.69 19.71
  C 7.02 19.07 6.64 18.30 5.93 18.16
  Z
  M 13.12 21.54
  C 12.49 21.05 11.61 21.02 10.95 21.47
  C 9.39 22.54 9.46 23.06 11.17 23.03
  C 11.59 23.02 11.98 23.03 12.33 23.05
  C 14.34 23.20 14.61 22.69 13.12 21.54
  Z"
/>
<path fill="#010100" fill-opacity="0.004" d="
  M 6.31 0.00
  L 18.06 0.00
  L 16.09 1.14
  C 15.84 1.28 15.53 1.35 15.19 1.34
  L 9.24 1.18
  C 8.79 1.17 8.48 1.12 8.31 1.03
  L 6.31 0.00
  Z"
/>
<path fill="#010100" fill-opacity="0.004" d="
  M 22.31 0.00
  L 24.00 0.00
  L 24.00 1.56
  C 23.56 0.92 23.00 0.40 22.31 0.00
  Z"
/>
<path fill="#010100" fill-opacity="0.004" d="
  M 0.00 6.69
  C 1.14 9.04 1.14 11.46 0.00 13.94
  L 0.00 6.69
  Z"
/>
<path fill="#010100" fill-opacity="0.004" d="
  M 24.00 7.06
  L 24.00 14.06
  C 23.43 11.89 23.09 10.21 23.00 9.00
  C 22.95 8.27 23.28 7.62 24.00 7.06
  Z"
/>
<path fill="#010100" fill-opacity="0.004" d="
  M 24.00 17.81
  L 24.00 24.00
  L 13.69 24.00
  C 14.66 23.13 16.10 22.63 18.00 22.50
  C 20.84 22.31 22.84 20.75 24.00 17.81
  Z"
/>
<path fill="#010100" fill-opacity="0.004" d="
  M 0.00 19.69
  C 0.74 21.56 2.00 22.85 3.79 23.58
  C 4.06 23.69 4.38 23.64 4.65 23.45
  C 6.56 22.08 8.49 22.26 10.44 24.00
  L 0.00 24.00
  L 0.00 19.69
  Z"
/>
</g>
<g>
<path fill="#010100" fill-opacity="0.004" d="
  M 1.19 4.44
  C 1.89 1.93 3.58 0.79 6.27 1.00
  C 7.31 1.09 7.41 1.44 6.58 2.07
  C 4.92 3.30 3.41 4.89 2.04 6.83
  C 1.87 7.07 1.54 7.10 1.39 6.90
  C 0.96 6.33 0.89 5.51 1.19 4.44
  Z"
/>
<path fill="#010100" fill-opacity="0.004" d="
  M 21.76 4.24
  C 20.01 6.18 18.51 5.68 17.28 2.74
  C 16.71 1.37 17.58 0.98 19.87 1.55
  C 20.18 1.62 20.51 1.59 20.79 1.45
  C 22.48 0.65 23.09 1.08 22.60 2.75
  C 22.43 3.31 22.15 3.81 21.76 4.24
  Z"
/>
<path fill="#010100" fill-opacity="0.004" d="
  M 9.65 18.02
  C 9.70 18.44 10.02 18.90 10.59 19.39
  C 10.89 19.65 10.90 20.11 10.62 20.38
  C 9.90 21.07 9.02 21.38 7.99 21.31
  C 7.75 21.29 7.59 21.03 7.68 20.78
  C 8.46 18.51 7.73 17.17 5.48 16.76
  C 4.95 16.67 4.46 16.44 4.05 16.09
  C 1.94 14.30 1.18 13.22 1.78 12.87
  C 1.96 12.76 2.32 12.80 2.69 12.98
  C 3.76 13.48 4.89 13.63 6.06 13.42
  C 6.35 13.37 6.61 13.16 6.75 12.85
  C 7.28 11.67 7.83 11.66 8.40 12.83
  C 8.55 13.14 8.69 13.37 8.81 13.50
  C 9.29 14.03 9.57 13.92 9.66 13.17
  C 9.69 12.94 9.64 12.71 9.51 12.48
  C 8.30 10.33 7.11 10.24 5.96 12.21
  C 5.70 12.66 5.09 12.77 4.69 12.44
  C 3.05 11.08 2.34 9.74 2.57 8.43
  C 2.72 7.58 3.38 6.47 4.57 5.09
  C 6.48 2.88 8.98 2.01 12.07 2.48
  C 12.36 2.53 12.68 2.49 13.03 2.38
  C 13.82 2.13 14.57 2.17 15.28 2.48
  C 15.71 2.67 16.19 3.18 16.70 4.00
  C 17.61 5.43 18.86 6.48 20.46 7.13
  C 20.79 7.27 21.05 7.49 21.18 7.75
  C 21.72 8.88 21.59 9.91 20.79 10.84
  C 20.29 11.42 20.01 11.76 19.94 11.87
  C 18.96 13.44 19.53 13.75 21.64 12.82
  C 22.14 12.60 22.47 12.66 22.64 13.01
  C 22.77 13.30 22.68 13.65 22.42 13.86
  L 19.02 16.55
  C 18.75 16.76 18.77 17.17 19.05 17.31
  C 20.58 18.08 21.48 17.66 21.75 16.05
  C 21.81 15.71 21.98 15.43 22.22 15.29
  C 23.02 14.82 23.24 15.22 22.89 16.49
  C 22.71 17.13 22.58 17.78 22.49 18.45
  C 22.45 18.79 22.31 19.09 22.09 19.30
  C 19.90 21.47 17.19 21.98 13.94 20.81
  C 13.41 20.62 13.13 20.32 13.10 19.93
  C 13.09 19.71 13.29 19.42 13.63 19.18
  C 13.96 18.93 14.21 18.61 14.36 18.23
  C 14.47 17.95 14.38 17.62 14.14 17.41
  C 13.03 16.44 11.81 16.29 10.46 16.94
  C 9.86 17.23 9.59 17.59 9.65 18.02
  Z
  M 17.38 5.82
  C 15.84 4.94 14.23 4.20 12.54 3.60
  C 12.24 3.50 11.90 3.50 11.60 3.62
  C 9.01 4.61 7.42 5.26 6.81 5.56
  C 6.14 5.90 5.93 6.25 6.19 6.60
  C 6.35 6.82 6.69 6.85 6.99 6.68
  C 10.15 4.82 13.34 4.76 16.57 6.50
  C 16.89 6.67 17.21 6.74 17.49 6.69
  C 18.18 6.55 18.14 6.26 17.38 5.82
  Z
  M 11.25 8.81
  C 11.35 9.30 11.58 9.58 11.94 9.67
  C 12.18 9.73 12.43 9.51 12.48 9.18
  C 12.63 8.11 13.19 7.90 14.18 8.53
  C 14.44 8.69 14.67 8.79 14.87 8.83
  C 15.77 8.99 15.96 8.75 15.44 8.10
  C 15.29 7.92 15.08 7.78 14.81 7.68
  C 13.96 7.37 13.15 6.99 12.37 6.56
  C 12.10 6.41 11.78 6.42 11.51 6.58
  C 10.66 7.11 9.76 7.57 8.83 7.96
  C 8.62 8.04 8.48 8.15 8.39 8.28
  C 8.20 8.57 8.24 8.77 8.51 8.89
  C 8.72 8.98 9.07 8.92 9.43 8.73
  C 9.82 8.51 10.24 8.38 10.69 8.33
  C 10.94 8.30 11.18 8.51 11.25 8.81
  Z
  M 17.37 11.47
  C 15.90 10.70 14.85 11.08 14.24 12.61
  C 13.99 13.22 14.06 13.57 14.45 13.67
  C 14.69 13.73 14.99 13.55 15.15 13.23
  C 16.04 11.47 16.87 11.55 17.64 13.47
  C 17.79 13.85 17.95 14.14 18.11 14.34
  C 18.82 15.25 18.85 14.63 18.20 12.47
  C 18.07 12.04 17.77 11.67 17.37 11.47
  Z"
/>
<path fill="#010100" fill-opacity="0.004" d="
  M 21.98 5.28
  C 22.45 4.73 22.76 4.89 22.93 5.75
  C 22.99 6.07 22.92 6.41 22.75 6.69
  C 22.14 7.64 21.80 7.47 21.71 6.18
  C 21.68 5.83 21.78 5.51 21.98 5.28
  Z"
/>
<path fill="#010100" fill-opacity="0.004" d="
  M 1.97 15.52
  C 2.36 15.71 2.59 16.01 2.66 16.43
  C 2.72 16.74 2.55 17.05 2.25 17.18
  C 1.56 17.47 1.15 17.16 1.00 16.24
  C 0.86 15.37 1.18 15.13 1.97 15.52
  Z"
/>
<path fill="#010100" fill-opacity="0.004" d="
  M 11.51 17.93
  C 12.29 17.08 12.64 17.27 12.55 18.50
  C 12.53 18.82 12.29 19.07 12.01 19.05
  C 11.75 19.04 11.55 18.94 11.40 18.76
  C 11.22 18.54 11.27 18.19 11.51 17.93
  Z"
/>
<path fill="#010100" fill-opacity="0.004" d="
  M 5.93 18.16
  C 6.64 18.30 7.02 19.07 6.69 19.71
  C 5.24 22.54 3.80 23.03 2.37 21.16
  C 0.26 18.40 0.73 17.54 3.78 18.58
  C 4.04 18.67 4.36 18.62 4.64 18.44
  C 5.05 18.17 5.48 18.08 5.93 18.16
  Z"
/>
<path fill="#010100" fill-opacity="0.004" d="
  M 13.12 21.54
  C 14.61 22.69 14.34 23.20 12.33 23.05
  C 11.98 23.03 11.59 23.02 11.17 23.03
  C 9.46 23.06 9.39 22.54 10.95 21.47
  C 11.61 21.02 12.49 21.05 13.12 21.54
  Z"
/>
</g>
<g>
<path fill="#010000" fill-opacity="0.988" d="
  M 17.38 5.82
  C 18.14 6.26 18.18 6.55 17.49 6.69
  C 17.21 6.74 16.89 6.67 16.57 6.50
  C 13.34 4.76 10.15 4.82 6.99 6.68
  C 6.69 6.85 6.35 6.82 6.19 6.60
  C 5.93 6.25 6.14 5.90 6.81 5.56
  C 7.42 5.26 9.01 4.61 11.60 3.62
  C 11.90 3.50 12.24 3.50 12.54 3.60
  C 14.23 4.20 15.84 4.94 17.38 5.82
  Z"
/>
<path fill="#010000" fill-opacity="0.988" d="
  M 10.69 8.33
  C 10.24 8.38 9.82 8.51 9.43 8.73
  C 9.07 8.92 8.72 8.98 8.51 8.89
  C 8.24 8.77 8.20 8.57 8.39 8.28
  C 8.48 8.15 8.62 8.04 8.83 7.96
  C 9.76 7.57 10.66 7.11 11.51 6.58
  C 11.78 6.42 12.10 6.41 12.37 6.56
  C 13.15 6.99 13.96 7.37 14.81 7.68
  C 15.08 7.78 15.29 7.92 15.44 8.10
  C 15.96 8.75 15.77 8.99 14.87 8.83
  C 14.67 8.79 14.44 8.69 14.18 8.53
  C 13.19 7.90 12.63 8.11 12.48 9.18
  C 12.43 9.51 12.18 9.73 11.94 9.67
  C 11.58 9.58 11.35 9.30 11.25 8.81
  C 11.18 8.51 10.94 8.30 10.69 8.33
  Z"
/>
<path fill="#010000" fill-opacity="0.988" d="
  M 17.37 11.47
  C 17.77 11.67 18.07 12.04 18.20 12.47
  C 18.85 14.63 18.82 15.25 18.11 14.34
  C 17.95 14.14 17.79 13.85 17.64 13.47
  C 16.87 11.55 16.04 11.47 15.15 13.23
  C 14.99 13.55 14.69 13.73 14.45 13.67
  C 14.06 13.57 13.99 13.22 14.24 12.61
  C 14.85 11.08 15.90 10.70 17.37 11.47
  Z"
/>
</g>
</svg>
