<?xml version="1.0" encoding="UTF-8" standalone="no"?>
<!DOCTYPE svg PUBLIC "-//W3C//DTD SVG 1.1//EN" "http://www.w3.org/Graphics/SVG/1.1/DTD/svg11.dtd">
<svg xmlns="http://www.w3.org/2000/svg" version="1.1" viewBox="0 0 48 48">
<path fill="#000000" fill-opacity="0.996" d="
  M 9.31 0.00
  L 11.56 0.00
  Q 14.47 0.68 16.85 2.44
  A 1.18 1.12 56.7 0 0 17.74 2.65
  Q 24.66 1.31 31.46 3.06
  A 0.71 0.69 -65.4 0 0 32.21 2.77
  Q 33.55 0.81 35.81 0.00
  L 37.56 0.00
  Q 39.97 1.73 42.31 0.00
  L 44.31 0.00
  Q 47.06 0.85 48.00 3.56
  L 48.00 5.06
  Q 46.97 7.42 48.00 9.81
  L 48.00 12.31
  L 45.96 17.54
  A 1.87 1.68 52.8 0 0 45.88 18.49
  L 48.00 30.06
  L 48.00 34.56
  Q 44.74 45.73 33.05 44.86
  A 1.25 1.17 -60.9 0 0 32.18 45.14
  Q 29.46 47.40 25.94 48.00
  L 21.94 48.00
  Q 18.51 47.29 15.82 45.13
  A 1.26 1.24 61.5 0 0 14.94 44.86
  L 12.56 45.04
  A 1.75 1.49 -61.6 0 0 11.68 45.38
  L 8.19 48.00
  L 7.69 48.00
  Q 2.39 44.67 0.00 38.94
  L 0.00 29.94
  L 2.12 18.24
  A 1.42 1.12 -59.8 0 0 1.99 17.33
  Q 0.51 14.82 0.00 11.94
  L 0.00 9.69
  Q 1.37 1.67 9.31 0.00
  Z
  M 2.66 8.27
  Q 1.46 11.62 2.76 14.81
  Q 3.27 16.05 3.81 14.83
  Q 6.87 7.87 14.39 3.87
  Q 15.30 3.39 14.34 3.02
  Q 5.71 -0.29 2.66 8.27
  Z
  M 39.55 11.33
  A 0.75 0.74 -44.2 0 0 40.40 11.34
  Q 44.23 8.75 45.82 4.96
  A 1.23 1.17 -46.5 0 0 45.82 4.04
  Q 44.21 0.29 40.83 3.54
  A 1.21 1.20 47.9 0 1 39.08 3.45
  Q 36.53 0.49 34.47 3.21
  A 2.25 2.22 47.3 0 0 34.38 5.77
  Q 36.57 9.15 39.55 11.33
  Z
  M 8.36 26.85
  Q 6.62 27.12 4.11 25.70
  Q 2.15 24.60 2.37 26.52
  Q 2.44 27.20 3.01 27.78
  Q 5.81 30.63 9.18 32.77
  Q 9.50 32.97 12.91 34.34
  Q 17.46 36.18 14.47 42.41
  Q 14.08 43.22 14.92 42.99
  L 21.93 41.00
  A 0.72 0.68 58.6 0 0 22.18 39.81
  L 19.05 36.68
  A 0.97 0.97 -44.2 0 1 19.07 35.30
  Q 23.75 30.88 28.83 35.18
  A 1.02 0.88 43.4 0 1 28.98 36.60
  L 26.05 39.32
  A 1.00 0.91 -51.4 0 0 26.15 40.87
  Q 30.35 43.07 35.49 42.76
  Q 42.99 42.32 45.74 35.53
  A 0.53 0.53 8.2 0 0 45.20 34.81
  Q 41.85 35.11 38.50 34.93
  Q 37.44 34.87 37.31 34.07
  A 0.87 0.68 -22.4 0 1 37.74 33.31
  Q 41.40 31.14 44.54 28.28
  Q 45.26 27.64 45.45 26.84
  Q 46.04 24.38 43.31 25.80
  Q 41.19 26.90 38.81 26.94
  Q 37.32 26.96 38.31 25.81
  Q 40.81 22.94 42.75 19.68
  Q 43.26 18.83 43.25 18.07
  Q 43.24 17.18 42.87 16.37
  Q 42.11 14.68 41.94 14.42
  Q 41.35 13.50 39.99 13.66
  A 1.38 1.08 -26.1 0 1 39.09 13.47
  Q 34.72 10.46 32.06 5.87
  A 1.34 0.78 71.3 0 0 31.35 5.25
  L 25.81 4.08
  A 0.65 0.56 -74.7 0 0 25.14 4.53
  Q 24.63 6.10 25.23 7.60
  A 0.92 0.84 -5.1 0 0 25.93 8.13
  Q 31.13 8.87 35.30 12.01
  A 1.45 1.19 16.4 0 1 35.83 12.79
  Q 36.10 13.96 35.10 13.88
  Q 34.65 13.84 33.98 13.40
  Q 30.29 11.00 26.17 10.11
  A 0.77 0.76 -76.3 0 0 25.28 10.66
  Q 24.69 12.94 25.40 13.91
  A 1.32 0.70 -3.8 0 0 26.25 14.29
  Q 29.14 14.59 31.16 16.64
  A 0.88 0.78 33.1 0 1 31.39 17.48
  Q 31.00 18.67 29.76 17.72
  Q 28.42 16.68 25.52 16.36
  A 0.62 0.62 -2.1 0 0 24.84 17.09
  Q 25.41 20.32 23.81 19.91
  A 1.24 1.23 -77.0 0 1 22.91 18.46
  Q 23.53 15.41 21.49 16.12
  Q 19.57 16.79 17.91 17.96
  A 0.86 0.74 -45.2 0 1 17.05 18.03
  Q 15.64 17.22 17.31 16.06
  Q 19.45 14.59 22.45 14.02
  A 0.64 0.61 -5.3 0 0 22.97 13.43
  L 22.99 10.53
  A 0.45 0.43 -4.0 0 0 22.47 10.10
  Q 17.70 10.87 14.16 13.35
  Q 13.57 13.76 13.12 13.84
  Q 11.92 14.05 12.18 12.79
  A 1.45 1.11 -18.4 0 1 12.71 12.01
  Q 16.05 9.51 20.08 8.48
  Q 20.16 8.47 21.57 8.37
  Q 23.51 8.23 22.72 4.78
  A 0.94 0.93 80.2 0 0 21.71 4.06
  Q 9.35 5.43 4.76 17.26
  A 2.23 2.21 42.0 0 0 4.86 19.08
  Q 6.66 22.50 9.01 24.89
  Q 10.60 26.51 8.36 26.85
  Z
  M 43.22 12.43
  Q 43.39 13.86 44.39 14.91
  A 0.40 0.40 -51.8 0 0 45.02 14.83
  Q 46.37 12.58 45.86 9.99
  Q 45.74 9.39 45.33 9.78
  L 43.49 11.53
  A 1.15 0.87 69.5 0 0 43.22 12.43
  Z
  M 44.46 21.73
  Q 43.21 22.46 42.91 23.20
  Q 42.69 23.73 43.31 23.65
  Q 44.93 23.43 44.94 22.01
  Q 44.94 21.46 44.46 21.73
  Z
  M 4.74 23.80
  Q 5.63 24.18 5.07 23.39
  Q 2.91 20.37 3.23 22.70
  A 0.95 0.87 9.0 0 0 3.78 23.39
  L 4.74 23.80
  Z
  M 43.88 31.54
  Q 40.70 33.64 45.32 32.67
  A 0.75 0.75 -0.6 0 0 45.91 32.07
  Q 46.51 28.78 44.85 30.68
  Q 44.39 31.20 43.88 31.54
  Z
  M 2.81 30.57
  A 0.31 0.31 -64.7 0 0 2.31 30.75
  Q 1.49 34.72 3.22 34.30
  Q 4.39 34.01 4.44 34.01
  Q 5.96 33.97 7.13 34.92
  A 1.10 0.78 51.0 0 0 7.98 35.16
  Q 9.15 34.86 7.72 34.05
  Q 5.52 32.80 2.81 30.57
  Z
  M 22.94 37.56
  A 3.09 1.75 -32.6 0 0 25.19 37.44
  Q 27.32 36.57 25.55 35.39
  A 2.85 2.82 52.3 0 0 23.08 35.06
  Q 20.02 36.09 22.94 37.56
  Z
  M 13.44 40.33
  Q 14.26 39.02 13.62 37.62
  Q 13.05 36.37 11.78 36.07
  Q 10.20 35.69 9.11 37.24
  A 1.12 1.12 33.4 0 1 7.59 37.55
  Q 3.28 34.81 2.15 38.01
  A 1.35 1.27 44.9 0 0 2.18 38.96
  Q 3.77 42.76 7.65 45.37
  A 0.74 0.72 43.7 0 0 8.49 45.36
  Q 10.04 44.25 11.27 42.87
  Q 13.23 40.66 13.44 40.33
  Z
  M 20.49 45.48
  Q 24.30 46.57 28.50 45.25
  Q 29.56 44.92 29.31 44.38
  A 1.18 0.29 17.6 0 0 28.52 43.90
  L 24.99 42.53
  A 2.79 2.26 34.9 0 0 22.62 42.70
  Q 21.30 43.59 19.57 43.77
  A 1.17 0.80 5.5 0 0 18.76 44.22
  Q 18.28 45.03 19.36 45.24
  Q 20.32 45.44 20.49 45.48
  Z"
/>
<path fill="#000000" fill-opacity="0.996" d="
  M 15.29 24.19
  Q 13.56 24.15 13.11 26.07
  Q 12.90 26.97 12.67 27.34
  Q 11.60 29.02 11.12 26.91
  Q 10.97 26.26 11.15 25.60
  Q 12.18 21.75 15.75 22.23
  Q 17.33 22.44 18.27 23.56
  Q 19.26 24.74 19.45 26.36
  Q 19.54 27.08 19.24 27.59
  Q 18.68 28.54 17.86 27.58
  A 1.83 0.80 -87.8 0 1 17.51 26.69
  Q 17.35 25.73 16.80 24.98
  Q 16.23 24.20 15.29 24.19
  Z"
/>
<path fill="#000000" fill-opacity="0.996" d="
  M 35.29 23.08
  Q 36.81 24.34 37.03 26.89
  A 2.41 2.36 -70.0 0 0 37.67 28.30
  Q 39.01 29.72 37.25 29.96
  A 0.74 0.70 -16.1 0 1 36.50 29.57
  L 34.61 25.54
  Q 34.35 24.98 34.04 24.76
  Q 31.54 22.99 30.66 26.07
  Q 30.41 26.95 30.16 27.35
  Q 29.06 29.03 28.61 26.91
  Q 28.47 26.25 28.63 25.61
  Q 29.31 22.90 31.62 22.32
  Q 33.73 21.80 35.29 23.08
  Z"
/>
</svg>
