<?xml version="1.0" encoding="UTF-8" standalone="no"?>
<!DOCTYPE svg PUBLIC "-//W3C//DTD SVG 1.1//EN" "http://www.w3.org/Graphics/SVG/1.1/DTD/svg11.dtd">
<svg xmlns="http://www.w3.org/2000/svg" version="1.1" viewBox="0 0 50 50">
<path fill="#000000" d="
  M 38.07 8.44
  C 40.56 10.01 42.74 11.92 44.62 14.18
  C 44.83 14.43 44.94 14.74 44.94 15.06
  L 45.00 40.77
  C 45.01 42.83 43.99 43.93 41.94 44.06
  L 15.32 45.80
  C 14.21 45.87 13.29 45.48 12.56 44.61
  C 10.97 42.74 9.29 40.71 7.50 38.50
  C 5.86 36.47 5.04 34.63 5.03 33.00
  C 5.01 25.00 5.00 16.76 5.00 8.28
  C 5.00 7.62 5.51 7.08 6.16 7.03
  C 14.22 6.42 22.17 5.83 30.00 5.25
  C 32.27 5.08 34.18 5.57 35.73 6.72
  C 37.22 7.82 38.00 8.39 38.07 8.44
  Z
  M 13.93 13.56
  C 20.80 13.57 27.66 13.25 34.51 12.60
  C 35.08 12.55 35.74 12.53 36.49 12.55
  C 39.51 12.64 39.97 12.02 37.86 10.67
  C 37.37 10.36 36.88 9.98 36.39 9.55
  C 34.32 7.74 31.85 6.96 29.00 7.23
  C 22.26 7.87 15.51 8.38 8.74 8.75
  C 8.33 8.77 8.27 8.91 8.56 9.18
  L 13.03 13.27
  C 13.23 13.46 13.55 13.56 13.93 13.56
  Z
  M 7.55 10.93
  C 7.18 10.54 7.00 10.62 7.00 11.17
  C 7.00 17.41 7.00 23.70 7.00 30.04
  C 7.00 30.12 6.96 30.75 6.89 31.94
  C 6.76 34.10 7.48 35.94 9.03 37.47
  C 9.88 38.30 10.55 39.07 11.05 39.80
  C 11.68 40.73 12.00 40.64 12.00 39.51
  L 11.94 16.05
  C 11.94 15.70 11.82 15.39 11.62 15.18
  L 7.55 10.93
  Z
  M 14.17 16.98
  C 13.97 24.56 13.91 32.31 13.99 40.23
  C 13.99 40.31 13.96 40.82 13.89 41.76
  C 13.78 43.33 14.55 44.03 16.20 43.84
  C 16.91 43.76 17.27 43.72 17.30 43.72
  C 24.74 43.25 32.18 42.77 39.62 42.29
  C 39.67 42.29 40.09 42.29 40.88 42.29
  C 42.48 42.28 43.22 41.50 43.10 39.94
  C 43.03 39.09 43.00 38.62 43.00 38.54
  C 43.00 31.17 43.00 23.56 43.00 15.71
  C 43.00 14.83 42.26 14.14 41.38 14.19
  L 15.33 15.79
  C 14.69 15.83 14.19 16.35 14.17 16.98
  Z"
/>
<path fill="#000000" d="
  M 33.96 30.46
  L 33.99 21.92
  C 33.99 21.45 33.63 21.05 33.16 20.99
  C 31.68 20.81 31.40 20.40 32.32 19.77
  C 32.57 19.60 32.88 19.48 33.25 19.42
  C 35.70 19.02 37.27 18.90 37.94 19.06
  C 38.53 19.20 38.65 19.53 38.31 20.06
  C 37.44 21.41 37.00 22.31 37.00 22.75
  L 37.00 37.35
  C 37.00 37.82 36.72 38.24 36.29 38.43
  C 34.03 39.43 32.27 38.84 31.02 36.66
  C 29.09 33.31 27.10 29.98 25.06 26.69
  C 24.37 25.58 24.04 25.66 24.06 26.94
  L 24.22 36.02
  C 24.23 36.48 24.52 36.87 24.93 36.98
  C 26.36 37.37 26.64 37.86 25.77 38.45
  C 25.48 38.64 25.11 38.77 24.66 38.83
  C 23.05 39.04 21.44 39.15 19.81 39.18
  C 19.53 39.18 19.32 38.94 19.39 38.70
  C 19.56 38.10 19.99 37.71 20.69 37.53
  C 20.99 37.45 21.19 37.21 21.20 36.93
  L 21.25 22.83
  C 21.25 22.39 20.90 22.03 20.46 22.01
  C 19.01 21.94 18.64 21.52 19.37 20.73
  C 19.63 20.45 19.98 20.27 20.41 20.20
  C 21.69 19.98 23.33 19.91 25.34 19.99
  C 26.01 20.02 26.61 20.35 26.95 20.89
  L 33.15 30.67
  C 33.68 31.51 33.95 31.44 33.96 30.46
  Z"
/>
</svg>
